<svg width="20" height="20" viewBox="0 0 20 20" fill="none" xmlns="http://www.w3.org/2000/svg">
<path d="M3.1 14C2.8 13.5 2.2 13.4 1.7 13.6C1.2 13.9 1.1 14.5 1.3 15C1.6 15.5 2.2 15.6 2.7 15.4C3.2 15.1 3.3 14.5 3.1 14ZM2.7 4.6C2.2 4.4 1.6 4.5 1.3 5C1.1 5.5 1.2 6.1 1.7 6.4C2.2 6.6 2.8 6.5 3.1 6C3.3 5.5 3.2 4.9 2.7 4.6ZM18.3 6.4C18.8 6.1 18.9 5.5 18.7 5C18.4 4.5 17.8 4.4 17.3 4.6C16.8 4.9 16.7 5.5 16.9 6C17.2 6.5 17.8 6.6 18.3 6.4ZM2 10C2 9.4 1.6 9 1 9C0.4 9 0 9.4 0 10C0 10.6 0.4 11 1 11C1.6 11 2 10.6 2 10ZM5.2 16.8C4.7 16.9 4.3 17.5 4.5 18C4.6 18.5 5.2 18.9 5.7 18.7C6.2 18.6 6.6 18 6.4 17.5C6.3 17 5.8 16.7 5.2 16.8ZM19 9C18.4 9 18 9.4 18 10C18 10.6 18.4 11 19 11C19.6 11 20 10.6 20 10C20 9.4 19.6 9 19 9ZM18.3 13.6C17.8 13.3 17.2 13.5 16.9 14C16.6 14.5 16.8 15.1 17.3 15.4C17.8 15.7 18.4 15.5 18.7 15C18.9 14.5 18.8 13.9 18.3 13.6ZM15 1.3C14.5 1 13.9 1.2 13.6 1.7C13.3 2.2 13.5 2.8 14 3.1C14.5 3.4 15.1 3.2 15.4 2.7C15.6 2.2 15.5 1.6 15 1.3ZM14.8 16.8C14.3 16.7 13.7 17 13.6 17.5C13.5 18 13.8 18.6 14.3 18.7C14.8 18.8 15.4 18.5 15.5 18C15.6 17.5 15.3 17 14.8 16.8ZM10 18C9.4 18 9 18.4 9 19C9 19.6 9.4 20 10 20C10.6 20 11 19.6 11 19C11 18.4 10.6 18 10 18ZM10 0C9.4 0 9 0.4 9 1C9 1.6 9.4 2 10 2C10.6 2 11 1.6 11 1C11 0.4 10.6 0 10 0Z" fill="black"/>
</svg>
