<svg width="236" height="65" viewBox="0 0 236 65" fill="none" xmlns="http://www.w3.org/2000/svg">
<path d="M28.5 0L57 16.25V48.75L28.5 65L0 48.75V16.25L28.5 0Z" fill="#334EFF"/>
<path d="M23.5908 14.2188L41.9122 19.1172L46.8214 37.3984L33.4092 50.7812L15.0878 45.8828L10.1786 27.6016L23.5908 14.2188Z" fill="#FFCC99"/>
<path d="M24.4286 25.4635C26.948 24.0122 30.052 24.0122 32.5714 25.4635C35.0908 26.9149 36.6429 29.5972 36.6429 32.5C36.6429 35.4028 35.0908 38.0851 32.5714 39.5365C30.052 40.9878 26.948 40.9878 24.4286 39.5365C21.9092 38.0851 20.3571 35.4028 20.3571 32.5C20.3571 29.5972 21.9092 26.9149 24.4286 25.4635Z" fill="#FF0055"/>
<path d="M80.2273 20.7273L85.8523 38.4091H86.0682L91.7045 20.7273H97.1591L89.1364 44H82.7955L74.7614 20.7273H80.2273ZM99.8693 44V26.5455H104.71V44H99.8693ZM102.301 24.2955C101.581 24.2955 100.964 24.0568 100.449 23.5795C99.9413 23.0947 99.6875 22.5152 99.6875 21.8409C99.6875 21.1742 99.9413 20.6023 100.449 20.125C100.964 19.6402 101.581 19.3977 102.301 19.3977C103.021 19.3977 103.634 19.6402 104.142 20.125C104.657 20.6023 104.915 21.1742 104.915 21.8409C104.915 22.5152 104.657 23.0947 104.142 23.5795C103.634 24.0568 103.021 24.2955 102.301 24.2955ZM116.452 50.9091C114.884 50.9091 113.539 50.6932 112.418 50.2614C111.304 49.8371 110.418 49.2576 109.759 48.5227C109.099 47.7879 108.671 46.9621 108.474 46.0455L112.952 45.4432C113.088 45.7917 113.304 46.1174 113.599 46.4205C113.895 46.7235 114.285 46.9659 114.77 47.1477C115.262 47.3371 115.861 47.4318 116.565 47.4318C117.618 47.4318 118.486 47.1742 119.168 46.6591C119.857 46.1515 120.202 45.2992 120.202 44.1023V40.9091H119.997C119.785 41.3939 119.467 41.8523 119.043 42.2841C118.618 42.7159 118.073 43.0682 117.406 43.3409C116.74 43.6136 115.944 43.75 115.02 43.75C113.709 43.75 112.516 43.447 111.44 42.8409C110.372 42.2273 109.52 41.2917 108.884 40.0341C108.255 38.7689 107.94 37.1705 107.94 35.2386C107.94 33.2614 108.262 31.6098 108.906 30.2841C109.55 28.9583 110.406 27.9659 111.474 27.3068C112.55 26.6477 113.728 26.3182 115.009 26.3182C115.986 26.3182 116.804 26.4848 117.463 26.8182C118.122 27.1439 118.652 27.553 119.054 28.0455C119.463 28.5303 119.777 29.0076 119.997 29.4773H120.179V26.5455H124.986V44.1705C124.986 45.6553 124.622 46.8977 123.895 47.8977C123.168 48.8977 122.16 49.6477 120.872 50.1477C119.592 50.6553 118.118 50.9091 116.452 50.9091ZM116.554 40.1136C117.334 40.1136 117.993 39.9205 118.531 39.5341C119.077 39.1402 119.493 38.5795 119.781 37.8523C120.077 37.1174 120.224 36.2386 120.224 35.2159C120.224 34.1932 120.08 33.3068 119.793 32.5568C119.505 31.7992 119.088 31.2121 118.543 30.7955C117.997 30.3788 117.334 30.1705 116.554 30.1705C115.759 30.1705 115.088 30.3864 114.543 30.8182C113.997 31.2424 113.584 31.8333 113.304 32.5909C113.024 33.3485 112.884 34.2235 112.884 35.2159C112.884 36.2235 113.024 37.0947 113.304 37.8295C113.592 38.5568 114.005 39.1212 114.543 39.5227C115.088 39.9167 115.759 40.1136 116.554 40.1136ZM128.838 44V26.5455H133.679V44H128.838ZM131.27 24.2955C130.55 24.2955 129.933 24.0568 129.418 23.5795C128.91 23.0947 128.656 22.5152 128.656 21.8409C128.656 21.1742 128.91 20.6023 129.418 20.125C129.933 19.6402 130.55 19.3977 131.27 19.3977C131.99 19.3977 132.603 19.6402 133.111 20.125C133.626 20.6023 133.884 21.1742 133.884 21.8409C133.884 22.5152 133.626 23.0947 133.111 23.5795C132.603 24.0568 131.99 24.2955 131.27 24.2955ZM142.398 20.7273V44H137.557V20.7273H142.398ZM151.253 44.3295C150.139 44.3295 149.147 44.1364 148.276 43.75C147.404 43.3561 146.715 42.7765 146.207 42.0114C145.707 41.2386 145.457 40.2765 145.457 39.125C145.457 38.1553 145.635 37.3409 145.991 36.6818C146.348 36.0227 146.832 35.4924 147.446 35.0909C148.06 34.6894 148.757 34.3864 149.537 34.1818C150.325 33.9773 151.151 33.8333 152.014 33.75C153.029 33.6439 153.848 33.5455 154.469 33.4545C155.09 33.3561 155.541 33.2121 155.821 33.0227C156.101 32.8333 156.241 32.553 156.241 32.1818V32.1136C156.241 31.3939 156.014 30.8371 155.56 30.4432C155.113 30.0492 154.476 29.8523 153.651 29.8523C152.779 29.8523 152.086 30.0455 151.571 30.4318C151.056 30.8106 150.715 31.2879 150.548 31.8636L146.071 31.5C146.298 30.4394 146.745 29.5227 147.412 28.75C148.079 27.9697 148.938 27.3712 149.991 26.9545C151.052 26.5303 152.279 26.3182 153.673 26.3182C154.643 26.3182 155.571 26.4318 156.457 26.6591C157.351 26.8864 158.143 27.2386 158.832 27.7159C159.529 28.1932 160.079 28.8068 160.48 29.5568C160.882 30.2992 161.082 31.1894 161.082 32.2273V44H156.491V41.5795H156.355C156.075 42.125 155.7 42.6061 155.23 43.0227C154.76 43.4318 154.196 43.7538 153.537 43.9886C152.878 44.2159 152.116 44.3295 151.253 44.3295ZM152.639 40.9886C153.351 40.9886 153.98 40.8485 154.526 40.5682C155.071 40.2803 155.499 39.8939 155.81 39.4091C156.12 38.9242 156.276 38.375 156.276 37.7614V35.9091C156.124 36.0076 155.916 36.0985 155.651 36.1818C155.393 36.2576 155.101 36.3295 154.776 36.3977C154.45 36.4583 154.124 36.5152 153.798 36.5682C153.473 36.6136 153.177 36.6553 152.912 36.6932C152.344 36.7765 151.848 36.9091 151.423 37.0909C150.999 37.2727 150.67 37.5189 150.435 37.8295C150.2 38.1326 150.082 38.5114 150.082 38.9659C150.082 39.625 150.321 40.1288 150.798 40.4773C151.283 40.8182 151.897 40.9886 152.639 40.9886ZM169.679 33.9091V44H164.838V26.5455H169.452V29.625H169.656C170.043 28.6098 170.69 27.8068 171.599 27.2159C172.509 26.6174 173.611 26.3182 174.906 26.3182C176.118 26.3182 177.175 26.5833 178.077 27.1136C178.978 27.6439 179.679 28.4015 180.179 29.3864C180.679 30.3636 180.929 31.5303 180.929 32.8864V44H176.088V33.75C176.096 32.6818 175.823 31.8485 175.27 31.25C174.717 30.6439 173.955 30.3409 172.986 30.3409C172.334 30.3409 171.759 30.4811 171.259 30.7614C170.766 31.0417 170.38 31.4508 170.099 31.9886C169.827 32.5189 169.687 33.1591 169.679 33.9091ZM194.028 26.5455V30.1818H183.517V26.5455H194.028ZM185.903 22.3636H190.744V38.6364C190.744 39.0833 190.813 39.4318 190.949 39.6818C191.085 39.9242 191.275 40.0947 191.517 40.1932C191.767 40.2917 192.055 40.3409 192.381 40.3409C192.608 40.3409 192.835 40.322 193.062 40.2841C193.29 40.2386 193.464 40.2045 193.585 40.1818L194.347 43.7841C194.104 43.8598 193.763 43.947 193.324 44.0455C192.884 44.1515 192.35 44.2159 191.722 44.2386C190.555 44.2841 189.532 44.1288 188.653 43.7727C187.782 43.4167 187.104 42.8636 186.619 42.1136C186.134 41.3636 185.896 40.4167 185.903 39.2727V22.3636ZM208.69 44H203.418L211.452 20.7273H217.793L225.815 44H220.543L214.713 26.0455H214.531L208.69 44ZM208.361 34.8523H220.815V38.6932H208.361V34.8523ZM233.537 20.7273V44H228.616V20.7273H233.537Z" fill="black"/>
</svg>
